<?xml version="1.0" encoding="utf-8"?>
<!-- Generator: Adobe Illustrator 24.2.0, SVG Export Plug-In . SVG Version: 6.00 Build 0)  -->
<svg version="1.1" id="Layer_1" xmlns="http://www.w3.org/2000/svg" xmlns:xlink="http://www.w3.org/1999/xlink" x="0px" y="0px"
	 viewBox="0 0 943.2 943.2" style="enable-background:new 0 0 943.2 943.2;" xml:space="preserve">
<style type="text/css">
	.st0{fill:#0073BA;}
</style>
<g>
	<g>
		<path class="st0" d="M-658.3,31.8C-553.9-8-435.3-8.7-330.5,29.8c69.1,25.1,131.9,66.8,182.1,120.5
			c50.8,54.2,88.6,120.5,108.9,192c19.2,67.1,23.1,138.4,11.6,207.2c-14.5,88-55,171.3-114.9,237.4
			c-59.9,66.5-139.2,115.4-225.7,138.7c-66.2,18-136.4,21.1-204,9.4c-82.9-14.2-161.6-51.5-225.3-106.3
			c-61.2-52.5-108.7-120.9-136.1-196.8c-8.8-24.2-15.5-49-20.2-74.3c64.2-66.3,137.2-124.2,216.5-171.4
			c87.9-52.4,183.6-91.8,283-116.4c75-18.5,152-29.2,229.3-30.8c-23.9-2.3-48-2.7-72-2.9c-104.2-0.2-208.4,14.9-308.2,44.9
			C-735,319.7-856.7,384.2-961.8,469.4c0.1-28.7,3-57.4,8.2-85.6c120.3-89.7,260.3-152.9,407.1-183.8
			c84.7-17.9,171.7-25.3,258.2-22.3c-112.9-15.3-228.3-11.7-340.2,9.7c-104.1,20-205.2,55.9-298.5,106.4
			c11.4-28,25.7-54.9,42.3-80.3c0.4-0.8,1-1.4,1.8-1.8c142.1-64.4,298.7-95.9,454.6-92.7c4.4,0.1,8.7,0.1,13.1,0.5
			c-22.5-3.4-45.2-5.2-67.9-6.8c-117.7-7.5-236.7,4.8-350.4,36.3C-785.2,97.3-724.6,57-658.3,31.8z M-272.9,400.9
			c-31.6,11-61.6,29-82.7,55.3c-19.4,24.1-31.6,54.9-30.4,86.1c0,84.8-0.1,169.5,0,254.3c25.3-1.2,51.2-4.9,73.8-16.9
			c14-7.4,26-18.4,34.6-31.7c9.5-14.6,15.2-31.3,18.9-48.2c4.9-22.2,6.7-44.9,7.8-67.5c1.2-26.7,1.1-53.4,1.3-80
			c0.5-36.9,7.6-74.6,26.4-106.8c16.8-28.9,43.6-52.8,75.7-63C-189.9,382.4-232.8,386.9-272.9,400.9z M-598,419.4
			c0,73.9,0,147.8,0,221.8c37.7,5.3,74.8,17.4,107,37.9c33.7,21.2,61.7,51.2,80.3,86.3c4.7,9.3,9.6,18.8,12.2,29
			c-0.8-1.1-1.1-2.6-2.1-3.5c-1.2,0.2-2.2-0.4-2.8-1.5c-7.1-6.6-14.2-13.4-22-19.3c-28.3-21.9-61-37.5-94.9-48.3
			c-44.7-14.1-91.7-19.7-138.5-19.6c0-69.8,0-139.6,0-209.4c-12.5-1-25.1,0.8-37.3,3.2c0,76.6,0,153.2,0,229.7
			c13.5-1,27.1-1.4,40.7-1.4c47.1,0.2,94.3,4.9,140,16.5c37.9,9.7,75,24.4,106.9,47.3c2.1,1.6,4.5,3,6.1,5.2
			c0.4,0.1,1.3,0.2,1.7,0.3c-0.3,0.4-0.7,1.3-1,1.7c1.6-0.5,2.7,0.7,3.9,1.5c0.4-30.5,0.1-61.1,0.2-91.6
			c-0.1-56.7,0.1-113.3-0.1-170c-12-17.2-26-33.1-41.2-47.5c-29.1-27.5-64.3-49-102.9-60.2C-559.9,422.2-578.9,418.8-598,419.4z
			 M-645.6,449.7c0,77.2,0,154.3,0,231.5c18.9-0.5,37.9,1.1,56.6,3.9c37.6,5.8,74.5,17.5,107.7,36.2c28.4,15.9,53.9,37.1,74.2,62.5
			c1.2,1.6,2.8,2.9,3.5,4.8l0.2,0.8c1,0.2,1.8-0.2,2.5-1c-2.2-1.5-2.9-4.2-4.3-6.3c-22.7-37.4-55.9-68.1-94.3-88.8
			c-34.3-18.7-72.8-29.1-111.6-32.7c0-70.3,0-140.6,0-210.9C-622.6,449.7-634.1,449.7-645.6,449.7z M-696,751.9
			c0,12.7,0,25.4,0,38.1c54.9-12.4,111.3-18.7,167.7-16.8c41.2,1.6,82.6,7.1,121.9,20c1.6,0.7,3.9,0.7,4.7,2.7
			c-0.1-0.6-0.4-1.9-0.5-2.5c-9.4-5.1-19-10.1-29-14c-32.6-12.9-67.4-19.7-102.1-24C-587.3,748.9-641.8,748.2-696,751.9z"/>
	</g>
</g>
<g>
	<g>
		<path d="M304.9,31.8C409.3-8,527.9-8.7,632.7,29.8c69.1,25.1,131.9,66.8,182.1,120.5c50.8,54.2,88.6,120.5,108.9,192
			c19.2,67.1,23.1,138.4,11.6,207.2c-14.5,88-55,171.3-114.9,237.4c-60,66.5-139.2,115.4-225.7,138.7c-66.2,18-136.4,21.1-204,9.4
			c-82.9-14.2-161.6-51.5-225.3-106.3C104.3,776,56.8,707.6,29.4,631.8c-8.8-24.2-15.5-49-20.2-74.3
			C73.4,491.1,146.4,433.3,225.7,386c87.9-52.4,183.6-91.8,283-116.4c75-18.5,152-29.2,229.3-30.8c-23.9-2.3-48-2.7-72-2.9
			c-104.2-0.2-208.4,14.9-308.2,44.9C228.2,319.7,106.5,384.2,1.4,469.4c0.1-28.7,3-57.4,8.2-85.6
			C129.9,294.1,269.9,231,416.7,200.1c84.7-17.9,171.7-25.3,258.2-22.3c-112.9-15.3-228.3-11.7-340.2,9.7
			c-104.1,20-205.2,55.9-298.5,106.4c11.4-28,25.7-54.9,42.3-80.3c0.4-0.8,1-1.4,1.8-1.8C222.3,147.5,379,116,534.8,119.2
			c4.4,0.1,8.7,0.1,13.1,0.5c-22.5-3.4-45.2-5.2-67.9-6.8c-117.7-7.5-236.7,4.8-350.4,36.3C178,97.3,238.6,57,304.9,31.8z
			 M690.3,400.9c-31.6,11-61.5,29-82.7,55.3c-19.4,24.1-31.6,54.9-30.4,86.1c0,84.8-0.1,169.5,0,254.3c25.3-1.2,51.2-4.9,73.8-16.9
			c14-7.4,26-18.4,34.6-31.7c9.5-14.6,15.2-31.3,18.9-48.2c4.9-22.2,6.7-44.9,7.8-67.5c1.2-26.7,1.1-53.4,1.3-80
			c0.5-36.9,7.6-74.6,26.4-106.8c16.8-28.9,43.6-52.8,75.7-63C773.3,382.4,730.4,386.9,690.3,400.9z M365.2,419.4
			c0,73.9,0,147.8,0,221.8c37.7,5.3,74.8,17.4,107,37.9c33.7,21.2,61.7,51.2,80.3,86.3c4.7,9.3,9.6,18.8,12.2,29
			c-0.8-1.1-1.1-2.6-2.1-3.5c-1.2,0.2-2.2-0.4-2.8-1.5c-7.2-6.6-14.2-13.4-22-19.3c-28.3-21.9-60.9-37.5-94.9-48.3
			c-44.7-14.1-91.7-19.7-138.5-19.6c0-69.8,0-139.6,0-209.4c-12.5-1-25.1,0.8-37.3,3.2c0,76.6,0,153.2,0,229.7
			c13.5-1,27.1-1.4,40.7-1.4c47.1,0.2,94.3,4.9,140,16.5c37.9,9.7,75,24.4,106.9,47.3c2.1,1.6,4.5,3,6.1,5.2
			c0.4,0.1,1.3,0.2,1.7,0.3c-0.3,0.4-0.7,1.3-1,1.7c1.6-0.5,2.7,0.7,3.9,1.5c0.4-30.5,0.1-61.1,0.2-91.6
			c-0.1-56.7,0.1-113.3-0.1-170c-12-17.2-26-33.1-41.2-47.5c-29.1-27.5-64.3-49-102.9-60.2C403.3,422.2,384.3,418.8,365.2,419.4z
			 M317.6,449.7c0,77.2,0,154.3,0,231.5c18.9-0.5,37.9,1.1,56.6,3.9c37.6,5.8,74.5,17.5,107.8,36.2c28.4,15.9,53.9,37.1,74.2,62.5
			c1.2,1.6,2.8,2.9,3.5,4.8l0.2,0.8c1,0.2,1.8-0.2,2.5-1c-2.2-1.5-2.9-4.2-4.3-6.3c-22.7-37.4-55.9-68.1-94.3-88.8
			c-34.3-18.7-72.8-29.1-111.6-32.7c0-70.3,0-140.6,0-210.9C340.6,449.7,329.1,449.7,317.6,449.7z M267.2,751.9
			c0,12.7,0,25.4,0,38.1c54.9-12.4,111.3-18.7,167.6-16.8c41.2,1.6,82.6,7.1,121.9,20c1.6,0.7,3.9,0.7,4.7,2.7
			c-0.1-0.6-0.4-1.9-0.5-2.5c-9.4-5.1-19-10.1-29-14c-32.6-12.9-67.4-19.7-102.1-24C375.9,748.9,321.4,748.2,267.2,751.9z"/>
	</g>
</g>
</svg>
